<svg xmlns="http://www.w3.org/2000/svg" xmlns:xlink="http://www.w3.org/1999/xlink" width="1024" height="400">\n<path  d="M 0 0
L 1024 0
L 1024 400
L 0 400
L 0 0" style="stroke-width:0;stroke:rgba(255,255,255,1.0);fill:rgba(1,1,1,0.0)"/><path  d="M 155 56
L 954 56
L 954 351
L 155 351
L 155 56" style="stroke-width:0;stroke:rgba(255,255,255,1.0);fill:rgba(1,1,1,0.0)"/><path  d="M 155 351
L 954 351" style="stroke-width:1;stroke:rgba(51,51,51,1.0);fill:none"/><path  d="M 155 351
L 155 356" style="stroke-width:1;stroke:rgba(51,51,51,1.0);fill:none"/><text x="140" y="373" style="stroke-width:0;stroke:none;fill:rgba(51,51,51,1.0);font-size:12.8px;font-family:'Roboto Medium',sans-serif">-0.10</text><path  d="M 221 351
L 221 356" style="stroke-width:1;stroke:rgba(51,51,51,1.0);fill:none"/><text x="208" y="373" style="stroke-width:0;stroke:none;fill:rgba(51,51,51,1.0);font-size:12.8px;font-family:'Roboto Medium',sans-serif">1.00</text><path  d="M 281 351
L 281 356" style="stroke-width:1;stroke:rgba(51,51,51,1.0);fill:none"/><text x="268" y="373" style="stroke-width:0;stroke:none;fill:rgba(51,51,51,1.0);font-size:12.8px;font-family:'Roboto Medium',sans-serif">2.00</text><path  d="M 340 351
L 340 356" style="stroke-width:1;stroke:rgba(51,51,51,1.0);fill:none"/><text x="327" y="373" style="stroke-width:0;stroke:none;fill:rgba(51,51,51,1.0);font-size:12.8px;font-family:'Roboto Medium',sans-serif">3.00</text><path  d="M 406 351
L 406 356" style="stroke-width:1;stroke:rgba(51,51,51,1.0);fill:none"/><text x="393" y="373" style="stroke-width:0;stroke:none;fill:rgba(51,51,51,1.0);font-size:12.8px;font-family:'Roboto Medium',sans-serif">4.10</text><path  d="M 466 351
L 466 356" style="stroke-width:1;stroke:rgba(51,51,51,1.0);fill:none"/><text x="453" y="373" style="stroke-width:0;stroke:none;fill:rgba(51,51,51,1.0);font-size:12.8px;font-family:'Roboto Medium',sans-serif">5.10</text><path  d="M 525 351
L 525 356" style="stroke-width:1;stroke:rgba(51,51,51,1.0);fill:none"/><text x="512" y="373" style="stroke-width:0;stroke:none;fill:rgba(51,51,51,1.0);font-size:12.8px;font-family:'Roboto Medium',sans-serif">6.10</text><path  d="M 591 351
L 591 356" style="stroke-width:1;stroke:rgba(51,51,51,1.0);fill:none"/><text x="578" y="373" style="stroke-width:0;stroke:none;fill:rgba(51,51,51,1.0);font-size:12.8px;font-family:'Roboto Medium',sans-serif">7.20</text><path  d="M 650 351
L 650 356" style="stroke-width:1;stroke:rgba(51,51,51,1.0);fill:none"/><text x="637" y="373" style="stroke-width:0;stroke:none;fill:rgba(51,51,51,1.0);font-size:12.8px;font-family:'Roboto Medium',sans-serif">8.20</text><path  d="M 710 351
L 710 356" style="stroke-width:1;stroke:rgba(51,51,51,1.0);fill:none"/><text x="697" y="373" style="stroke-width:0;stroke:none;fill:rgba(51,51,51,1.0);font-size:12.8px;font-family:'Roboto Medium',sans-serif">9.20</text><path  d="M 776 351
L 776 356" style="stroke-width:1;stroke:rgba(51,51,51,1.0);fill:none"/><text x="760" y="373" style="stroke-width:0;stroke:none;fill:rgba(51,51,51,1.0);font-size:12.8px;font-family:'Roboto Medium',sans-serif">10.30</text><path  d="M 835 351
L 835 356" style="stroke-width:1;stroke:rgba(51,51,51,1.0);fill:none"/><text x="819" y="373" style="stroke-width:0;stroke:none;fill:rgba(51,51,51,1.0);font-size:12.8px;font-family:'Roboto Medium',sans-serif">11.30</text><path  d="M 895 351
L 895 356" style="stroke-width:1;stroke:rgba(51,51,51,1.0);fill:none"/><text x="879" y="373" style="stroke-width:0;stroke:none;fill:rgba(51,51,51,1.0);font-size:12.8px;font-family:'Roboto Medium',sans-serif">12.30</text><path  d="M 954 351
L 954 356" style="stroke-width:1;stroke:rgba(51,51,51,1.0);fill:none"/><text x="938" y="373" style="stroke-width:0;stroke:none;fill:rgba(51,51,51,1.0);font-size:12.8px;font-family:'Roboto Medium',sans-serif">13.30</text><text x="513" y="395" style="stroke-width:0;stroke:none;fill:rgba(51,51,51,1.0);font-size:12.8px;font-family:'Roboto Medium',sans-serif">Time, seconds</text><path  d="M 221 351
L 221 56" style="stroke-width:0;stroke:none;fill:none"/><path  d="M 281 351
L 281 56" style="stroke-width:0;stroke:none;fill:none"/><path  d="M 340 351
L 340 56" style="stroke-width:0;stroke:none;fill:none"/><path  d="M 406 351
L 406 56" style="stroke-width:0;stroke:none;fill:none"/><path  d="M 466 351
L 466 56" style="stroke-width:0;stroke:none;fill:none"/><path  d="M 525 351
L 525 56" style="stroke-width:0;stroke:none;fill:none"/><path  d="M 591 351
L 591 56" style="stroke-width:0;stroke:none;fill:none"/><path  d="M 650 351
L 650 56" style="stroke-width:0;stroke:none;fill:none"/><path  d="M 710 351
L 710 56" style="stroke-width:0;stroke:none;fill:none"/><path  d="M 776 351
L 776 56" style="stroke-width:0;stroke:none;fill:none"/><path  d="M 835 351
L 835 56" style="stroke-width:0;stroke:none;fill:none"/><path  d="M 895 351
L 895 56" style="stroke-width:0;stroke:none;fill:none"/><path  d="M 955 351
L 955 56" style="stroke-width:1;stroke:rgba(51,51,51,1.0);fill:none"/><path  d="M 955 351
L 960 351" style="stroke-width:1;stroke:rgba(51,51,51,1.0);fill:none"/><text x="965" y="357" style="stroke-width:0;stroke:none;fill:rgba(51,51,51,1.0);font-size:12.8px;font-family:'Roboto Medium',sans-serif">0.00</text><path  d="M 955 308
L 960 308" style="stroke-width:1;stroke:rgba(51,51,51,1.0);fill:none"/><text x="965" y="314" style="stroke-width:0;stroke:none;fill:rgba(51,51,51,1.0);font-size:12.8px;font-family:'Roboto Medium',sans-serif">8.60</text><path  d="M 955 266
L 960 266" style="stroke-width:1;stroke:rgba(51,51,51,1.0);fill:none"/><text x="965" y="272" style="stroke-width:0;stroke:none;fill:rgba(51,51,51,1.0);font-size:12.8px;font-family:'Roboto Medium',sans-serif">17.20</text><path  d="M 955 224
L 960 224" style="stroke-width:1;stroke:rgba(51,51,51,1.0);fill:none"/><text x="965" y="230" style="stroke-width:0;stroke:none;fill:rgba(51,51,51,1.0);font-size:12.8px;font-family:'Roboto Medium',sans-serif">25.80</text><path  d="M 955 182
L 960 182" style="stroke-width:1;stroke:rgba(51,51,51,1.0);fill:none"/><text x="965" y="188" style="stroke-width:0;stroke:none;fill:rgba(51,51,51,1.0);font-size:12.8px;font-family:'Roboto Medium',sans-serif">34.30</text><path  d="M 955 140
L 960 140" style="stroke-width:1;stroke:rgba(51,51,51,1.0);fill:none"/><text x="965" y="146" style="stroke-width:0;stroke:none;fill:rgba(51,51,51,1.0);font-size:12.8px;font-family:'Roboto Medium',sans-serif">42.90</text><path  d="M 955 97
L 960 97" style="stroke-width:1;stroke:rgba(51,51,51,1.0);fill:none"/><text x="965" y="103" style="stroke-width:0;stroke:none;fill:rgba(51,51,51,1.0);font-size:12.8px;font-family:'Roboto Medium',sans-serif">51.50</text><path  d="M 955 56
L 960 56" style="stroke-width:1;stroke:rgba(51,51,51,1.0);fill:none"/><text x="965" y="62" style="stroke-width:0;stroke:none;fill:rgba(51,51,51,1.0);font-size:12.8px;font-family:'Roboto Medium',sans-serif">60.00</text><text x="1008" y="75" style="stroke-width:0;stroke:none;fill:rgba(51,51,51,1.0);font-size:12.8px;font-family:'Roboto Medium',sans-serif" transform="rotate(90.00,1008,75)">Quantity of data received by handlers, pieces</text><path  d="M 155 351
L 954 351" style="stroke-width:0;stroke:none;fill:none"/><path  d="M 155 308
L 954 308" style="stroke-width:0;stroke:none;fill:none"/><path  d="M 155 266
L 954 266" style="stroke-width:0;stroke:none;fill:none"/><path  d="M 155 224
L 954 224" style="stroke-width:0;stroke:none;fill:none"/><path  d="M 155 182
L 954 182" style="stroke-width:0;stroke:none;fill:none"/><path  d="M 155 140
L 954 140" style="stroke-width:0;stroke:none;fill:none"/><path  d="M 155 97
L 954 97" style="stroke-width:0;stroke:none;fill:none"/><path  d="M 154 351
L 154 56" style="stroke-width:1;stroke:rgba(51,51,51,1.0);fill:none"/><path  d="M 154 -9223372036854775457
L 149 -9223372036854775457" style="stroke-width:1;stroke:rgba(51,51,51,1.0);fill:none"/><text x="118" y="-9223372036854775451" style="stroke-width:0;stroke:none;fill:rgba(51,51,51,1.0);font-size:12.8px;font-family:'Roboto Medium',sans-serif">0.00</text><path  d="M 154 -9223372036854775457
L 149 -9223372036854775457" style="stroke-width:1;stroke:rgba(51,51,51,1.0);fill:none"/><text x="118" y="-9223372036854775451" style="stroke-width:0;stroke:none;fill:rgba(51,51,51,1.0);font-size:12.8px;font-family:'Roboto Medium',sans-serif">0.00</text><path  d="M 154 -9223372036854775457
L 149 -9223372036854775457" style="stroke-width:1;stroke:rgba(51,51,51,1.0);fill:none"/><text x="118" y="-9223372036854775451" style="stroke-width:0;stroke:none;fill:rgba(51,51,51,1.0);font-size:12.8px;font-family:'Roboto Medium',sans-serif">0.00</text><path  d="M 154 -9223372036854775457
L 149 -9223372036854775457" style="stroke-width:1;stroke:rgba(51,51,51,1.0);fill:none"/><text x="118" y="-9223372036854775451" style="stroke-width:0;stroke:none;fill:rgba(51,51,51,1.0);font-size:12.8px;font-family:'Roboto Medium',sans-serif">0.00</text><path  d="M 154 -9223372036854775457
L 149 -9223372036854775457" style="stroke-width:1;stroke:rgba(51,51,51,1.0);fill:none"/><text x="118" y="-9223372036854775451" style="stroke-width:0;stroke:none;fill:rgba(51,51,51,1.0);font-size:12.8px;font-family:'Roboto Medium',sans-serif">0.00</text><path  d="M 154 -9223372036854775457
L 149 -9223372036854775457" style="stroke-width:1;stroke:rgba(51,51,51,1.0);fill:none"/><text x="118" y="-9223372036854775451" style="stroke-width:0;stroke:none;fill:rgba(51,51,51,1.0);font-size:12.8px;font-family:'Roboto Medium',sans-serif">0.00</text><path  d="M 154 -9223372036854775457
L 149 -9223372036854775457" style="stroke-width:1;stroke:rgba(51,51,51,1.0);fill:none"/><text x="118" y="-9223372036854775451" style="stroke-width:0;stroke:none;fill:rgba(51,51,51,1.0);font-size:12.8px;font-family:'Roboto Medium',sans-serif">0.00</text><path  d="M 154 -9223372036854775457
L 149 -9223372036854775457" style="stroke-width:1;stroke:rgba(51,51,51,1.0);fill:none"/><text x="118" y="-9223372036854775451" style="stroke-width:0;stroke:none;fill:rgba(51,51,51,1.0);font-size:12.8px;font-family:'Roboto Medium',sans-serif">0.00</text><path  d="M 155 -9223372036854775457
L 954 -9223372036854775457" style="stroke-width:0;stroke:none;fill:none"/><path  d="M 155 -9223372036854775457
L 954 -9223372036854775457" style="stroke-width:0;stroke:none;fill:none"/><path  d="M 155 -9223372036854775457
L 954 -9223372036854775457" style="stroke-width:0;stroke:none;fill:none"/><path  d="M 155 -9223372036854775457
L 954 -9223372036854775457" style="stroke-width:0;stroke:none;fill:none"/><path  d="M 155 -9223372036854775457
L 954 -9223372036854775457" style="stroke-width:0;stroke:none;fill:none"/><path  d="M 155 -9223372036854775457
L 954 -9223372036854775457" style="stroke-width:0;stroke:none;fill:none"/><path  d="M 155 -9223372036854775457
L 954 -9223372036854775457" style="stroke-width:0;stroke:none;fill:none"/><path  d="M 155 351
L 161 56
L 167 149
L 173 331
L 179 331
L 185 331
L 191 336
L 197 331
L 203 336
L 209 331
L 215 331
L 221 331
L 227 331
L 233 331
L 239 336
L 245 331
L 251 331
L 257 336
L 263 331
L 269 331
L 275 331
L 281 331
L 287 336
L 293 331
L 299 331
L 305 336
L 311 331
L 316 331
L 322 331
L 328 331
L 334 336
L 340 331
L 346 331
L 352 336
L 358 331
L 364 331
L 370 331
L 376 331
L 382 336
L 388 331
L 394 331
L 400 336
L 406 331
L 412 331
L 418 331
L 424 331
L 430 336
L 436 331
L 442 331
L 448 336
L 454 331
L 460 331
L 466 331
L 472 331
L 477 336
L 483 331
L 489 331
L 495 336
L 501 331
L 507 331
L 513 331
L 519 331
L 525 336
L 531 331
L 537 331
L 543 336
L 549 331
L 555 331
L 561 331
L 567 331
L 573 336
L 579 331
L 585 331
L 591 336
L 597 331
L 603 331
L 609 331
L 615 331
L 621 336
L 627 331
L 633 331
L 638 336
L 644 331
L 650 331
L 656 331
L 662 331
L 668 336
L 674 331
L 680 331
L 686 336
L 692 331
L 698 331
L 704 331
L 710 331
L 716 336
L 722 331
L 728 331
L 734 336
L 740 331
L 746 331
L 752 331
L 758 331
L 764 336
L 770 331
L 776 331
L 782 336
L 788 331
L 794 331
L 799 331
L 805 346
L 811 351
L 817 351
L 823 351
L 829 351
L 835 351
L 841 351
L 847 351
L 853 351
L 859 351
L 865 351
L 871 351
L 877 351
L 883 351
L 889 351
L 895 351
L 901 351
L 907 351
L 913 351
L 919 351
L 925 351
L 931 351
L 937 351
L 943 351
L 949 351
L 954 351" style="stroke-width:4;stroke:rgba(84,112,198,1.0);fill:none"/><path  d="M 155 351
L 161 351
L 167 336
L 173 336
L 179 331
L 185 331
L 191 336
L 197 331
L 203 331
L 209 331
L 215 331
L 221 336
L 227 331
L 233 336
L 239 331
L 245 331
L 251 331
L 257 336
L 263 331
L 269 331
L 275 331
L 281 336
L 287 331
L 293 331
L 299 336
L 305 331
L 311 331
L 316 331
L 322 336
L 328 331
L 334 331
L 340 331
L 346 336
L 352 331
L 358 331
L 364 331
L 370 336
L 376 331
L 382 331
L 388 331
L 394 336
L 400 331
L 406 331
L 412 331
L 418 336
L 424 331
L 430 331
L 436 331
L 442 336
L 448 331
L 454 331
L 460 331
L 466 336
L 472 331
L 477 331
L 483 331
L 489 336
L 495 331
L 501 331
L 507 331
L 513 336
L 519 331
L 525 331
L 531 331
L 537 336
L 543 331
L 549 331
L 555 331
L 561 336
L 567 331
L 573 331
L 579 331
L 585 336
L 591 331
L 597 331
L 603 331
L 609 336
L 615 331
L 621 331
L 627 331
L 633 336
L 638 331
L 644 331
L 650 331
L 656 336
L 662 331
L 668 331
L 674 331
L 680 336
L 686 331
L 692 331
L 698 331
L 704 336
L 710 331
L 716 331
L 722 331
L 728 336
L 734 331
L 740 331
L 746 331
L 752 336
L 758 331
L 764 331
L 770 331
L 776 336
L 782 331
L 788 331
L 794 331
L 799 336
L 805 331
L 811 331
L 817 331
L 823 331
L 829 331
L 835 331
L 841 331
L 847 331
L 853 331
L 859 331
L 865 331
L 871 331
L 877 331
L 883 331
L 889 331
L 895 331
L 901 331
L 907 331
L 913 331
L 919 331
L 925 331
L 931 331
L 937 331
L 943 331
L 949 326
L 954 351" style="stroke-width:4;stroke:rgba(145,204,117,1.0);fill:none"/><path  d="M 155 351
L 161 351
L 167 336
L 173 331
L 179 331
L 185 336
L 191 331
L 197 336
L 203 331
L 209 331
L 215 331
L 221 336
L 227 331
L 233 331
L 239 331
L 245 331
L 251 336
L 257 331
L 263 331
L 269 331
L 275 336
L 281 331
L 287 331
L 293 331
L 299 336
L 305 331
L 311 331
L 316 331
L 322 331
L 328 336
L 334 331
L 340 331
L 346 336
L 352 331
L 358 331
L 364 331
L 370 331
L 376 336
L 382 331
L 388 331
L 394 336
L 400 331
L 406 331
L 412 331
L 418 331
L 424 336
L 430 331
L 436 331
L 442 336
L 448 331
L 454 331
L 460 331
L 466 331
L 472 336
L 477 331
L 483 331
L 489 336
L 495 331
L 501 331
L 507 331
L 513 331
L 519 336
L 525 331
L 531 331
L 537 336
L 543 331
L 549 331
L 555 331
L 561 331
L 567 336
L 573 331
L 579 331
L 585 336
L 591 331
L 597 331
L 603 331
L 609 331
L 615 336
L 621 331
L 627 331
L 633 336
L 638 331
L 644 331
L 650 331
L 656 331
L 662 336
L 668 331
L 674 331
L 680 336
L 686 331
L 692 331
L 698 331
L 704 331
L 710 336
L 716 331
L 722 331
L 728 336
L 734 331
L 740 331
L 746 331
L 752 331
L 758 336
L 764 331
L 770 331
L 776 336
L 782 331
L 788 331
L 794 331
L 799 331
L 805 331
L 811 331
L 817 331
L 823 331
L 829 331
L 835 331
L 841 331
L 847 331
L 853 331
L 859 331
L 865 331
L 871 331
L 877 331
L 883 331
L 889 331
L 895 331
L 901 331
L 907 331
L 913 331
L 919 331
L 925 331
L 931 331
L 937 331
L 943 331
L 949 336
L 954 351" style="stroke-width:4;stroke:rgba(250,200,88,1.0);fill:none"/><text x="158" y="33" style="stroke-width:0;stroke:none;fill:rgba(51,51,51,1.0);font-size:23.0px;font-family:'Roboto Medium',sans-serif">Data retrieval graph. Total amount of data: 1500, handlers quantity: 6</text><path  d="M 5 5
L 132 5
L 132 85
L 5 85
L 5 5" style="stroke-width:1;stroke:rgba(51,51,51,1.0);fill:rgba(1,1,1,0.0)"/><text x="10" y="20" style="stroke-width:0;stroke:none;fill:rgba(51,51,51,1.0);font-size:10.2px;font-family:'Roboto Medium',sans-serif">Data with priority 3</text><path  d="M 102 15
L 122 15" style="stroke-width:4;stroke:rgba(84,112,198,1.0);fill:none"/><text x="10" y="50" style="stroke-width:0;stroke:none;fill:rgba(51,51,51,1.0);font-size:10.2px;font-family:'Roboto Medium',sans-serif">Data with priority 2</text><path  d="M 102 45
L 122 45" style="stroke-width:4;stroke:rgba(145,204,117,1.0);fill:none"/><text x="10" y="80" style="stroke-width:0;stroke:none;fill:rgba(51,51,51,1.0);font-size:10.2px;font-family:'Roboto Medium',sans-serif">Data with priority 1</text><path  d="M 102 75
L 122 75" style="stroke-width:4;stroke:rgba(250,200,88,1.0);fill:none"/></svg>