<svg xmlns="http://www.w3.org/2000/svg" xmlns:xlink="http://www.w3.org/1999/xlink" width="1024" height="400">\n<path  d="M 0 0
L 1024 0
L 1024 400
L 0 400
L 0 0" style="stroke-width:0;stroke:rgba(255,255,255,1.0);fill:rgba(1,1,1,0.0)"/><path  d="M 155 56
L 954 56
L 954 351
L 155 351
L 155 56" style="stroke-width:0;stroke:rgba(255,255,255,1.0);fill:rgba(1,1,1,0.0)"/><path  d="M 155 351
L 954 351" style="stroke-width:1;stroke:rgba(51,51,51,1.0);fill:none"/><path  d="M 155 351
L 155 356" style="stroke-width:1;stroke:rgba(51,51,51,1.0);fill:none"/><text x="140" y="373" style="stroke-width:0;stroke:none;fill:rgba(51,51,51,1.0);font-size:12.8px;font-family:'Roboto Medium',sans-serif">-0.10</text><path  d="M 221 351
L 221 356" style="stroke-width:1;stroke:rgba(51,51,51,1.0);fill:none"/><text x="208" y="373" style="stroke-width:0;stroke:none;fill:rgba(51,51,51,1.0);font-size:12.8px;font-family:'Roboto Medium',sans-serif">1.00</text><path  d="M 280 351
L 280 356" style="stroke-width:1;stroke:rgba(51,51,51,1.0);fill:none"/><text x="267" y="373" style="stroke-width:0;stroke:none;fill:rgba(51,51,51,1.0);font-size:12.8px;font-family:'Roboto Medium',sans-serif">2.00</text><path  d="M 345 351
L 345 356" style="stroke-width:1;stroke:rgba(51,51,51,1.0);fill:none"/><text x="332" y="373" style="stroke-width:0;stroke:none;fill:rgba(51,51,51,1.0);font-size:12.8px;font-family:'Roboto Medium',sans-serif">3.10</text><path  d="M 404 351
L 404 356" style="stroke-width:1;stroke:rgba(51,51,51,1.0);fill:none"/><text x="391" y="373" style="stroke-width:0;stroke:none;fill:rgba(51,51,51,1.0);font-size:12.8px;font-family:'Roboto Medium',sans-serif">4.10</text><path  d="M 463 351
L 463 356" style="stroke-width:1;stroke:rgba(51,51,51,1.0);fill:none"/><text x="450" y="373" style="stroke-width:0;stroke:none;fill:rgba(51,51,51,1.0);font-size:12.8px;font-family:'Roboto Medium',sans-serif">5.10</text><path  d="M 528 351
L 528 356" style="stroke-width:1;stroke:rgba(51,51,51,1.0);fill:none"/><text x="515" y="373" style="stroke-width:0;stroke:none;fill:rgba(51,51,51,1.0);font-size:12.8px;font-family:'Roboto Medium',sans-serif">6.20</text><path  d="M 588 351
L 588 356" style="stroke-width:1;stroke:rgba(51,51,51,1.0);fill:none"/><text x="575" y="373" style="stroke-width:0;stroke:none;fill:rgba(51,51,51,1.0);font-size:12.8px;font-family:'Roboto Medium',sans-serif">7.20</text><path  d="M 653 351
L 653 356" style="stroke-width:1;stroke:rgba(51,51,51,1.0);fill:none"/><text x="640" y="373" style="stroke-width:0;stroke:none;fill:rgba(51,51,51,1.0);font-size:12.8px;font-family:'Roboto Medium',sans-serif">8.30</text><path  d="M 712 351
L 712 356" style="stroke-width:1;stroke:rgba(51,51,51,1.0);fill:none"/><text x="699" y="373" style="stroke-width:0;stroke:none;fill:rgba(51,51,51,1.0);font-size:12.8px;font-family:'Roboto Medium',sans-serif">9.30</text><path  d="M 771 351
L 771 356" style="stroke-width:1;stroke:rgba(51,51,51,1.0);fill:none"/><text x="755" y="373" style="stroke-width:0;stroke:none;fill:rgba(51,51,51,1.0);font-size:12.8px;font-family:'Roboto Medium',sans-serif">10.30</text><path  d="M 836 351
L 836 356" style="stroke-width:1;stroke:rgba(51,51,51,1.0);fill:none"/><text x="820" y="373" style="stroke-width:0;stroke:none;fill:rgba(51,51,51,1.0);font-size:12.8px;font-family:'Roboto Medium',sans-serif">11.40</text><path  d="M 895 351
L 895 356" style="stroke-width:1;stroke:rgba(51,51,51,1.0);fill:none"/><text x="879" y="373" style="stroke-width:0;stroke:none;fill:rgba(51,51,51,1.0);font-size:12.8px;font-family:'Roboto Medium',sans-serif">12.40</text><path  d="M 954 351
L 954 356" style="stroke-width:1;stroke:rgba(51,51,51,1.0);fill:none"/><text x="938" y="373" style="stroke-width:0;stroke:none;fill:rgba(51,51,51,1.0);font-size:12.8px;font-family:'Roboto Medium',sans-serif">13.40</text><text x="513" y="395" style="stroke-width:0;stroke:none;fill:rgba(51,51,51,1.0);font-size:12.8px;font-family:'Roboto Medium',sans-serif">Time, seconds</text><path  d="M 221 351
L 221 56" style="stroke-width:0;stroke:none;fill:none"/><path  d="M 280 351
L 280 56" style="stroke-width:0;stroke:none;fill:none"/><path  d="M 345 351
L 345 56" style="stroke-width:0;stroke:none;fill:none"/><path  d="M 404 351
L 404 56" style="stroke-width:0;stroke:none;fill:none"/><path  d="M 463 351
L 463 56" style="stroke-width:0;stroke:none;fill:none"/><path  d="M 528 351
L 528 56" style="stroke-width:0;stroke:none;fill:none"/><path  d="M 588 351
L 588 56" style="stroke-width:0;stroke:none;fill:none"/><path  d="M 653 351
L 653 56" style="stroke-width:0;stroke:none;fill:none"/><path  d="M 712 351
L 712 56" style="stroke-width:0;stroke:none;fill:none"/><path  d="M 771 351
L 771 56" style="stroke-width:0;stroke:none;fill:none"/><path  d="M 836 351
L 836 56" style="stroke-width:0;stroke:none;fill:none"/><path  d="M 895 351
L 895 56" style="stroke-width:0;stroke:none;fill:none"/><path  d="M 955 351
L 955 56" style="stroke-width:1;stroke:rgba(51,51,51,1.0);fill:none"/><path  d="M 955 351
L 960 351" style="stroke-width:1;stroke:rgba(51,51,51,1.0);fill:none"/><text x="965" y="357" style="stroke-width:0;stroke:none;fill:rgba(51,51,51,1.0);font-size:12.8px;font-family:'Roboto Medium',sans-serif">0.00</text><path  d="M 955 308
L 960 308" style="stroke-width:1;stroke:rgba(51,51,51,1.0);fill:none"/><text x="965" y="314" style="stroke-width:0;stroke:none;fill:rgba(51,51,51,1.0);font-size:12.8px;font-family:'Roboto Medium',sans-serif">2.90</text><path  d="M 955 265
L 960 265" style="stroke-width:1;stroke:rgba(51,51,51,1.0);fill:none"/><text x="965" y="271" style="stroke-width:0;stroke:none;fill:rgba(51,51,51,1.0);font-size:12.8px;font-family:'Roboto Medium',sans-serif">5.80</text><path  d="M 955 224
L 960 224" style="stroke-width:1;stroke:rgba(51,51,51,1.0);fill:none"/><text x="965" y="230" style="stroke-width:0;stroke:none;fill:rgba(51,51,51,1.0);font-size:12.8px;font-family:'Roboto Medium',sans-serif">8.60</text><path  d="M 955 181
L 960 181" style="stroke-width:1;stroke:rgba(51,51,51,1.0);fill:none"/><text x="965" y="187" style="stroke-width:0;stroke:none;fill:rgba(51,51,51,1.0);font-size:12.8px;font-family:'Roboto Medium',sans-serif">11.50</text><path  d="M 955 140
L 960 140" style="stroke-width:1;stroke:rgba(51,51,51,1.0);fill:none"/><text x="965" y="146" style="stroke-width:0;stroke:none;fill:rgba(51,51,51,1.0);font-size:12.8px;font-family:'Roboto Medium',sans-serif">14.30</text><path  d="M 955 97
L 960 97" style="stroke-width:1;stroke:rgba(51,51,51,1.0);fill:none"/><text x="965" y="103" style="stroke-width:0;stroke:none;fill:rgba(51,51,51,1.0);font-size:12.8px;font-family:'Roboto Medium',sans-serif">17.20</text><path  d="M 955 56
L 960 56" style="stroke-width:1;stroke:rgba(51,51,51,1.0);fill:none"/><text x="965" y="62" style="stroke-width:0;stroke:none;fill:rgba(51,51,51,1.0);font-size:12.8px;font-family:'Roboto Medium',sans-serif">20.00</text><text x="1008" y="75" style="stroke-width:0;stroke:none;fill:rgba(51,51,51,1.0);font-size:12.8px;font-family:'Roboto Medium',sans-serif" transform="rotate(90.00,1008,75)">Quantity of data received by handlers, pieces</text><path  d="M 155 351
L 954 351" style="stroke-width:0;stroke:none;fill:none"/><path  d="M 155 308
L 954 308" style="stroke-width:0;stroke:none;fill:none"/><path  d="M 155 265
L 954 265" style="stroke-width:0;stroke:none;fill:none"/><path  d="M 155 224
L 954 224" style="stroke-width:0;stroke:none;fill:none"/><path  d="M 155 181
L 954 181" style="stroke-width:0;stroke:none;fill:none"/><path  d="M 155 140
L 954 140" style="stroke-width:0;stroke:none;fill:none"/><path  d="M 155 97
L 954 97" style="stroke-width:0;stroke:none;fill:none"/><path  d="M 154 351
L 154 56" style="stroke-width:1;stroke:rgba(51,51,51,1.0);fill:none"/><path  d="M 154 -9223372036854775457
L 149 -9223372036854775457" style="stroke-width:1;stroke:rgba(51,51,51,1.0);fill:none"/><text x="118" y="-9223372036854775451" style="stroke-width:0;stroke:none;fill:rgba(51,51,51,1.0);font-size:12.8px;font-family:'Roboto Medium',sans-serif">0.00</text><path  d="M 154 -9223372036854775457
L 149 -9223372036854775457" style="stroke-width:1;stroke:rgba(51,51,51,1.0);fill:none"/><text x="118" y="-9223372036854775451" style="stroke-width:0;stroke:none;fill:rgba(51,51,51,1.0);font-size:12.8px;font-family:'Roboto Medium',sans-serif">0.00</text><path  d="M 154 -9223372036854775457
L 149 -9223372036854775457" style="stroke-width:1;stroke:rgba(51,51,51,1.0);fill:none"/><text x="118" y="-9223372036854775451" style="stroke-width:0;stroke:none;fill:rgba(51,51,51,1.0);font-size:12.8px;font-family:'Roboto Medium',sans-serif">0.00</text><path  d="M 154 -9223372036854775457
L 149 -9223372036854775457" style="stroke-width:1;stroke:rgba(51,51,51,1.0);fill:none"/><text x="118" y="-9223372036854775451" style="stroke-width:0;stroke:none;fill:rgba(51,51,51,1.0);font-size:12.8px;font-family:'Roboto Medium',sans-serif">0.00</text><path  d="M 154 -9223372036854775457
L 149 -9223372036854775457" style="stroke-width:1;stroke:rgba(51,51,51,1.0);fill:none"/><text x="118" y="-9223372036854775451" style="stroke-width:0;stroke:none;fill:rgba(51,51,51,1.0);font-size:12.8px;font-family:'Roboto Medium',sans-serif">0.00</text><path  d="M 154 -9223372036854775457
L 149 -9223372036854775457" style="stroke-width:1;stroke:rgba(51,51,51,1.0);fill:none"/><text x="118" y="-9223372036854775451" style="stroke-width:0;stroke:none;fill:rgba(51,51,51,1.0);font-size:12.8px;font-family:'Roboto Medium',sans-serif">0.00</text><path  d="M 154 -9223372036854775457
L 149 -9223372036854775457" style="stroke-width:1;stroke:rgba(51,51,51,1.0);fill:none"/><text x="118" y="-9223372036854775451" style="stroke-width:0;stroke:none;fill:rgba(51,51,51,1.0);font-size:12.8px;font-family:'Roboto Medium',sans-serif">0.00</text><path  d="M 154 -9223372036854775457
L 149 -9223372036854775457" style="stroke-width:1;stroke:rgba(51,51,51,1.0);fill:none"/><text x="118" y="-9223372036854775451" style="stroke-width:0;stroke:none;fill:rgba(51,51,51,1.0);font-size:12.8px;font-family:'Roboto Medium',sans-serif">0.00</text><path  d="M 155 -9223372036854775457
L 954 -9223372036854775457" style="stroke-width:0;stroke:none;fill:none"/><path  d="M 155 -9223372036854775457
L 954 -9223372036854775457" style="stroke-width:0;stroke:none;fill:none"/><path  d="M 155 -9223372036854775457
L 954 -9223372036854775457" style="stroke-width:0;stroke:none;fill:none"/><path  d="M 155 -9223372036854775457
L 954 -9223372036854775457" style="stroke-width:0;stroke:none;fill:none"/><path  d="M 155 -9223372036854775457
L 954 -9223372036854775457" style="stroke-width:0;stroke:none;fill:none"/><path  d="M 155 -9223372036854775457
L 954 -9223372036854775457" style="stroke-width:0;stroke:none;fill:none"/><path  d="M 155 -9223372036854775457
L 954 -9223372036854775457" style="stroke-width:0;stroke:none;fill:none"/><path  d="M 155 351
L 161 56
L 167 56
L 173 56
L 179 56
L 185 56
L 191 56
L 197 56
L 203 56
L 209 56
L 215 56
L 221 56
L 227 56
L 232 56
L 238 56
L 244 56
L 250 56
L 256 56
L 262 56
L 268 56
L 274 56
L 280 56
L 286 56
L 292 56
L 298 56
L 303 56
L 309 351
L 315 351
L 321 351
L 327 351
L 333 351
L 339 351
L 345 351
L 351 351
L 357 351
L 363 351
L 369 351
L 374 351
L 380 351
L 386 351
L 392 351
L 398 351
L 404 351
L 410 351
L 416 351
L 422 351
L 428 351
L 434 351
L 440 351
L 446 351
L 451 351
L 457 351
L 463 351
L 469 351
L 475 351
L 481 351
L 487 351
L 493 351
L 499 351
L 505 351
L 511 351
L 517 351
L 522 351
L 528 351
L 534 351
L 540 351
L 546 351
L 552 351
L 558 351
L 564 351
L 570 351
L 576 351
L 582 351
L 588 351
L 593 351
L 599 351
L 605 351
L 611 351
L 617 351
L 623 351
L 629 351
L 635 351
L 641 351
L 647 351
L 653 351
L 659 351
L 664 351
L 670 351
L 676 351
L 682 351
L 688 351
L 694 351
L 700 351
L 706 351
L 712 351
L 718 351
L 724 351
L 730 351
L 736 351
L 741 351
L 747 351
L 753 351
L 759 351
L 765 351
L 771 351
L 777 351
L 783 351
L 789 351
L 795 351
L 801 351
L 807 351
L 812 351
L 818 351
L 824 351
L 830 351
L 836 351
L 842 351
L 848 351
L 854 351
L 860 351
L 866 351
L 872 351
L 878 351
L 883 351
L 889 351
L 895 351
L 901 351
L 907 351
L 913 351
L 919 351
L 925 351
L 931 351
L 937 351
L 943 351
L 949 351
L 954 351" style="stroke-width:4;stroke:rgba(84,112,198,1.0);fill:none"/><path  d="M 155 351
L 161 292
L 167 292
L 173 292
L 179 292
L 185 292
L 191 292
L 197 292
L 203 292
L 209 292
L 215 292
L 221 292
L 227 292
L 232 292
L 238 292
L 244 292
L 250 292
L 256 292
L 262 292
L 268 292
L 274 292
L 280 292
L 286 292
L 292 292
L 298 292
L 303 292
L 309 262
L 315 262
L 321 262
L 327 262
L 333 262
L 339 262
L 345 262
L 351 262
L 357 262
L 363 262
L 369 262
L 374 262
L 380 262
L 386 262
L 392 262
L 398 262
L 404 262
L 410 262
L 416 262
L 422 262
L 428 262
L 434 262
L 440 262
L 446 262
L 451 262
L 457 262
L 463 262
L 469 262
L 475 262
L 481 262
L 487 262
L 493 262
L 499 262
L 505 262
L 511 262
L 517 262
L 522 262
L 528 262
L 534 262
L 540 262
L 546 262
L 552 262
L 558 262
L 564 262
L 570 262
L 576 262
L 582 262
L 588 262
L 593 262
L 599 262
L 605 262
L 611 262
L 617 262
L 623 262
L 629 262
L 635 262
L 641 262
L 647 262
L 653 262
L 659 262
L 664 262
L 670 262
L 676 262
L 682 262
L 688 262
L 694 262
L 700 292
L 706 351
L 712 351
L 718 351
L 724 351
L 730 351
L 736 351
L 741 351
L 747 351
L 753 351
L 759 351
L 765 351
L 771 351
L 777 351
L 783 351
L 789 351
L 795 351
L 801 351
L 807 351
L 812 351
L 818 351
L 824 351
L 830 351
L 836 351
L 842 351
L 848 351
L 854 351
L 860 351
L 866 351
L 872 351
L 878 351
L 883 351
L 889 351
L 895 351
L 901 351
L 907 351
L 913 351
L 919 351
L 925 351
L 931 351
L 937 351
L 943 351
L 949 351
L 954 351" style="stroke-width:4;stroke:rgba(145,204,117,1.0);fill:none"/><path  d="M 155 351
L 161 321
L 167 321
L 173 321
L 179 321
L 185 321
L 191 321
L 197 321
L 203 321
L 209 321
L 215 321
L 221 321
L 227 321
L 232 321
L 238 321
L 244 321
L 250 321
L 256 321
L 262 321
L 268 321
L 274 321
L 280 321
L 286 321
L 292 321
L 298 321
L 303 321
L 309 306
L 315 306
L 321 306
L 327 306
L 333 306
L 339 306
L 345 306
L 351 306
L 357 306
L 363 306
L 369 306
L 374 306
L 380 306
L 386 306
L 392 306
L 398 306
L 404 306
L 410 306
L 416 306
L 422 306
L 428 306
L 434 306
L 440 306
L 446 306
L 451 306
L 457 306
L 463 306
L 469 306
L 475 306
L 481 306
L 487 306
L 493 306
L 499 306
L 505 306
L 511 306
L 517 306
L 522 306
L 528 306
L 534 306
L 540 306
L 546 306
L 552 306
L 558 306
L 564 306
L 570 306
L 576 306
L 582 306
L 588 306
L 593 306
L 599 306
L 605 306
L 611 306
L 617 306
L 623 306
L 629 306
L 635 306
L 641 306
L 647 306
L 653 306
L 659 306
L 664 306
L 670 306
L 676 306
L 682 306
L 688 306
L 694 306
L 700 277
L 706 262
L 712 262
L 718 262
L 724 262
L 730 262
L 736 262
L 741 262
L 747 262
L 753 262
L 759 262
L 765 262
L 771 262
L 777 262
L 783 262
L 789 262
L 795 262
L 801 262
L 807 262
L 812 262
L 818 262
L 824 262
L 830 262
L 836 262
L 842 262
L 848 262
L 854 262
L 860 262
L 866 262
L 872 262
L 878 262
L 883 262
L 889 262
L 895 262
L 901 262
L 907 262
L 913 262
L 919 262
L 925 262
L 931 262
L 937 262
L 943 262
L 949 336
L 954 351" style="stroke-width:4;stroke:rgba(250,200,88,1.0);fill:none"/><text x="411" y="33" style="stroke-width:0;stroke:none;fill:rgba(51,51,51,1.0);font-size:23.0px;font-family:'Roboto Medium',sans-serif">Data retrieval graph</text><path  d="M 5 5
L 132 5
L 132 85
L 5 85
L 5 5" style="stroke-width:1;stroke:rgba(51,51,51,1.0);fill:rgba(1,1,1,0.0)"/><text x="10" y="20" style="stroke-width:0;stroke:none;fill:rgba(51,51,51,1.0);font-size:10.2px;font-family:'Roboto Medium',sans-serif">Data with priority 3</text><path  d="M 102 15
L 122 15" style="stroke-width:4;stroke:rgba(84,112,198,1.0);fill:none"/><text x="10" y="50" style="stroke-width:0;stroke:none;fill:rgba(51,51,51,1.0);font-size:10.2px;font-family:'Roboto Medium',sans-serif">Data with priority 2</text><path  d="M 102 45
L 122 45" style="stroke-width:4;stroke:rgba(145,204,117,1.0);fill:none"/><text x="10" y="80" style="stroke-width:0;stroke:none;fill:rgba(51,51,51,1.0);font-size:10.2px;font-family:'Roboto Medium',sans-serif">Data with priority 1</text><path  d="M 102 75
L 122 75" style="stroke-width:4;stroke:rgba(250,200,88,1.0);fill:none"/></svg>