<svg xmlns="http://www.w3.org/2000/svg" xmlns:xlink="http://www.w3.org/1999/xlink" width="1024" height="400">\n<path  d="M 0 0
L 1024 0
L 1024 400
L 0 400
L 0 0" style="stroke-width:0;stroke:rgba(255,255,255,1.0);fill:rgba(1,1,1,0.0)"/><path  d="M 155 56
L 954 56
L 954 351
L 155 351
L 155 56" style="stroke-width:0;stroke:rgba(255,255,255,1.0);fill:rgba(1,1,1,0.0)"/><path  d="M 155 351
L 954 351" style="stroke-width:1;stroke:rgba(51,51,51,1.0);fill:none"/><path  d="M 155 351
L 155 356" style="stroke-width:1;stroke:rgba(51,51,51,1.0);fill:none"/><text x="140" y="373" style="stroke-width:0;stroke:none;fill:rgba(51,51,51,1.0);font-size:12.8px;font-family:'Roboto Medium',sans-serif">-0.10</text><path  d="M 221 351
L 221 356" style="stroke-width:1;stroke:rgba(51,51,51,1.0);fill:none"/><text x="208" y="373" style="stroke-width:0;stroke:none;fill:rgba(51,51,51,1.0);font-size:12.8px;font-family:'Roboto Medium',sans-serif">1.00</text><path  d="M 280 351
L 280 356" style="stroke-width:1;stroke:rgba(51,51,51,1.0);fill:none"/><text x="267" y="373" style="stroke-width:0;stroke:none;fill:rgba(51,51,51,1.0);font-size:12.8px;font-family:'Roboto Medium',sans-serif">2.00</text><path  d="M 345 351
L 345 356" style="stroke-width:1;stroke:rgba(51,51,51,1.0);fill:none"/><text x="332" y="373" style="stroke-width:0;stroke:none;fill:rgba(51,51,51,1.0);font-size:12.8px;font-family:'Roboto Medium',sans-serif">3.10</text><path  d="M 404 351
L 404 356" style="stroke-width:1;stroke:rgba(51,51,51,1.0);fill:none"/><text x="391" y="373" style="stroke-width:0;stroke:none;fill:rgba(51,51,51,1.0);font-size:12.8px;font-family:'Roboto Medium',sans-serif">4.10</text><path  d="M 463 351
L 463 356" style="stroke-width:1;stroke:rgba(51,51,51,1.0);fill:none"/><text x="450" y="373" style="stroke-width:0;stroke:none;fill:rgba(51,51,51,1.0);font-size:12.8px;font-family:'Roboto Medium',sans-serif">5.10</text><path  d="M 528 351
L 528 356" style="stroke-width:1;stroke:rgba(51,51,51,1.0);fill:none"/><text x="515" y="373" style="stroke-width:0;stroke:none;fill:rgba(51,51,51,1.0);font-size:12.8px;font-family:'Roboto Medium',sans-serif">6.20</text><path  d="M 588 351
L 588 356" style="stroke-width:1;stroke:rgba(51,51,51,1.0);fill:none"/><text x="575" y="373" style="stroke-width:0;stroke:none;fill:rgba(51,51,51,1.0);font-size:12.8px;font-family:'Roboto Medium',sans-serif">7.20</text><path  d="M 653 351
L 653 356" style="stroke-width:1;stroke:rgba(51,51,51,1.0);fill:none"/><text x="640" y="373" style="stroke-width:0;stroke:none;fill:rgba(51,51,51,1.0);font-size:12.8px;font-family:'Roboto Medium',sans-serif">8.30</text><path  d="M 712 351
L 712 356" style="stroke-width:1;stroke:rgba(51,51,51,1.0);fill:none"/><text x="699" y="373" style="stroke-width:0;stroke:none;fill:rgba(51,51,51,1.0);font-size:12.8px;font-family:'Roboto Medium',sans-serif">9.30</text><path  d="M 771 351
L 771 356" style="stroke-width:1;stroke:rgba(51,51,51,1.0);fill:none"/><text x="755" y="373" style="stroke-width:0;stroke:none;fill:rgba(51,51,51,1.0);font-size:12.8px;font-family:'Roboto Medium',sans-serif">10.30</text><path  d="M 836 351
L 836 356" style="stroke-width:1;stroke:rgba(51,51,51,1.0);fill:none"/><text x="820" y="373" style="stroke-width:0;stroke:none;fill:rgba(51,51,51,1.0);font-size:12.8px;font-family:'Roboto Medium',sans-serif">11.40</text><path  d="M 895 351
L 895 356" style="stroke-width:1;stroke:rgba(51,51,51,1.0);fill:none"/><text x="879" y="373" style="stroke-width:0;stroke:none;fill:rgba(51,51,51,1.0);font-size:12.8px;font-family:'Roboto Medium',sans-serif">12.40</text><path  d="M 954 351
L 954 356" style="stroke-width:1;stroke:rgba(51,51,51,1.0);fill:none"/><text x="938" y="373" style="stroke-width:0;stroke:none;fill:rgba(51,51,51,1.0);font-size:12.8px;font-family:'Roboto Medium',sans-serif">13.40</text><text x="513" y="395" style="stroke-width:0;stroke:none;fill:rgba(51,51,51,1.0);font-size:12.8px;font-family:'Roboto Medium',sans-serif">Time, seconds</text><path  d="M 221 351
L 221 56" style="stroke-width:0;stroke:none;fill:none"/><path  d="M 280 351
L 280 56" style="stroke-width:0;stroke:none;fill:none"/><path  d="M 345 351
L 345 56" style="stroke-width:0;stroke:none;fill:none"/><path  d="M 404 351
L 404 56" style="stroke-width:0;stroke:none;fill:none"/><path  d="M 463 351
L 463 56" style="stroke-width:0;stroke:none;fill:none"/><path  d="M 528 351
L 528 56" style="stroke-width:0;stroke:none;fill:none"/><path  d="M 588 351
L 588 56" style="stroke-width:0;stroke:none;fill:none"/><path  d="M 653 351
L 653 56" style="stroke-width:0;stroke:none;fill:none"/><path  d="M 712 351
L 712 56" style="stroke-width:0;stroke:none;fill:none"/><path  d="M 771 351
L 771 56" style="stroke-width:0;stroke:none;fill:none"/><path  d="M 836 351
L 836 56" style="stroke-width:0;stroke:none;fill:none"/><path  d="M 895 351
L 895 56" style="stroke-width:0;stroke:none;fill:none"/><path  d="M 955 351
L 955 56" style="stroke-width:1;stroke:rgba(51,51,51,1.0);fill:none"/><path  d="M 955 351
L 960 351" style="stroke-width:1;stroke:rgba(51,51,51,1.0);fill:none"/><text x="965" y="357" style="stroke-width:0;stroke:none;fill:rgba(51,51,51,1.0);font-size:12.8px;font-family:'Roboto Medium',sans-serif">0.00</text><path  d="M 955 308
L 960 308" style="stroke-width:1;stroke:rgba(51,51,51,1.0);fill:none"/><text x="965" y="314" style="stroke-width:0;stroke:none;fill:rgba(51,51,51,1.0);font-size:12.8px;font-family:'Roboto Medium',sans-serif">1.43</text><path  d="M 955 266
L 960 266" style="stroke-width:1;stroke:rgba(51,51,51,1.0);fill:none"/><text x="965" y="272" style="stroke-width:0;stroke:none;fill:rgba(51,51,51,1.0);font-size:12.8px;font-family:'Roboto Medium',sans-serif">2.86</text><path  d="M 955 224
L 960 224" style="stroke-width:1;stroke:rgba(51,51,51,1.0);fill:none"/><text x="965" y="230" style="stroke-width:0;stroke:none;fill:rgba(51,51,51,1.0);font-size:12.8px;font-family:'Roboto Medium',sans-serif">4.29</text><path  d="M 955 182
L 960 182" style="stroke-width:1;stroke:rgba(51,51,51,1.0);fill:none"/><text x="965" y="188" style="stroke-width:0;stroke:none;fill:rgba(51,51,51,1.0);font-size:12.8px;font-family:'Roboto Medium',sans-serif">5.72</text><path  d="M 955 140
L 960 140" style="stroke-width:1;stroke:rgba(51,51,51,1.0);fill:none"/><text x="965" y="146" style="stroke-width:0;stroke:none;fill:rgba(51,51,51,1.0);font-size:12.8px;font-family:'Roboto Medium',sans-serif">7.15</text><path  d="M 955 97
L 960 97" style="stroke-width:1;stroke:rgba(51,51,51,1.0);fill:none"/><text x="965" y="103" style="stroke-width:0;stroke:none;fill:rgba(51,51,51,1.0);font-size:12.8px;font-family:'Roboto Medium',sans-serif">8.58</text><path  d="M 955 56
L 960 56" style="stroke-width:1;stroke:rgba(51,51,51,1.0);fill:none"/><text x="965" y="62" style="stroke-width:0;stroke:none;fill:rgba(51,51,51,1.0);font-size:12.8px;font-family:'Roboto Medium',sans-serif">10.00</text><text x="1008" y="75" style="stroke-width:0;stroke:none;fill:rgba(51,51,51,1.0);font-size:12.8px;font-family:'Roboto Medium',sans-serif" transform="rotate(90.00,1008,75)">Quantity of data received by handlers, pieces</text><path  d="M 155 351
L 954 351" style="stroke-width:0;stroke:none;fill:none"/><path  d="M 155 308
L 954 308" style="stroke-width:0;stroke:none;fill:none"/><path  d="M 155 266
L 954 266" style="stroke-width:0;stroke:none;fill:none"/><path  d="M 155 224
L 954 224" style="stroke-width:0;stroke:none;fill:none"/><path  d="M 155 182
L 954 182" style="stroke-width:0;stroke:none;fill:none"/><path  d="M 155 140
L 954 140" style="stroke-width:0;stroke:none;fill:none"/><path  d="M 155 97
L 954 97" style="stroke-width:0;stroke:none;fill:none"/><path  d="M 154 351
L 154 56" style="stroke-width:1;stroke:rgba(51,51,51,1.0);fill:none"/><path  d="M 154 -9223372036854775457
L 149 -9223372036854775457" style="stroke-width:1;stroke:rgba(51,51,51,1.0);fill:none"/><text x="118" y="-9223372036854775451" style="stroke-width:0;stroke:none;fill:rgba(51,51,51,1.0);font-size:12.8px;font-family:'Roboto Medium',sans-serif">0.00</text><path  d="M 154 -9223372036854775457
L 149 -9223372036854775457" style="stroke-width:1;stroke:rgba(51,51,51,1.0);fill:none"/><text x="118" y="-9223372036854775451" style="stroke-width:0;stroke:none;fill:rgba(51,51,51,1.0);font-size:12.8px;font-family:'Roboto Medium',sans-serif">0.00</text><path  d="M 154 -9223372036854775457
L 149 -9223372036854775457" style="stroke-width:1;stroke:rgba(51,51,51,1.0);fill:none"/><text x="118" y="-9223372036854775451" style="stroke-width:0;stroke:none;fill:rgba(51,51,51,1.0);font-size:12.8px;font-family:'Roboto Medium',sans-serif">0.00</text><path  d="M 154 -9223372036854775457
L 149 -9223372036854775457" style="stroke-width:1;stroke:rgba(51,51,51,1.0);fill:none"/><text x="118" y="-9223372036854775451" style="stroke-width:0;stroke:none;fill:rgba(51,51,51,1.0);font-size:12.8px;font-family:'Roboto Medium',sans-serif">0.00</text><path  d="M 154 -9223372036854775457
L 149 -9223372036854775457" style="stroke-width:1;stroke:rgba(51,51,51,1.0);fill:none"/><text x="118" y="-9223372036854775451" style="stroke-width:0;stroke:none;fill:rgba(51,51,51,1.0);font-size:12.8px;font-family:'Roboto Medium',sans-serif">0.00</text><path  d="M 154 -9223372036854775457
L 149 -9223372036854775457" style="stroke-width:1;stroke:rgba(51,51,51,1.0);fill:none"/><text x="118" y="-9223372036854775451" style="stroke-width:0;stroke:none;fill:rgba(51,51,51,1.0);font-size:12.8px;font-family:'Roboto Medium',sans-serif">0.00</text><path  d="M 154 -9223372036854775457
L 149 -9223372036854775457" style="stroke-width:1;stroke:rgba(51,51,51,1.0);fill:none"/><text x="118" y="-9223372036854775451" style="stroke-width:0;stroke:none;fill:rgba(51,51,51,1.0);font-size:12.8px;font-family:'Roboto Medium',sans-serif">0.00</text><path  d="M 154 -9223372036854775457
L 149 -9223372036854775457" style="stroke-width:1;stroke:rgba(51,51,51,1.0);fill:none"/><text x="118" y="-9223372036854775451" style="stroke-width:0;stroke:none;fill:rgba(51,51,51,1.0);font-size:12.8px;font-family:'Roboto Medium',sans-serif">0.00</text><path  d="M 155 -9223372036854775457
L 954 -9223372036854775457" style="stroke-width:0;stroke:none;fill:none"/><path  d="M 155 -9223372036854775457
L 954 -9223372036854775457" style="stroke-width:0;stroke:none;fill:none"/><path  d="M 155 -9223372036854775457
L 954 -9223372036854775457" style="stroke-width:0;stroke:none;fill:none"/><path  d="M 155 -9223372036854775457
L 954 -9223372036854775457" style="stroke-width:0;stroke:none;fill:none"/><path  d="M 155 -9223372036854775457
L 954 -9223372036854775457" style="stroke-width:0;stroke:none;fill:none"/><path  d="M 155 -9223372036854775457
L 954 -9223372036854775457" style="stroke-width:0;stroke:none;fill:none"/><path  d="M 155 -9223372036854775457
L 954 -9223372036854775457" style="stroke-width:0;stroke:none;fill:none"/><path  d="M 155 351
L 161 351
L 167 351
L 173 351
L 179 351
L 185 351
L 191 351
L 197 351
L 203 351
L 209 351
L 215 351
L 221 351
L 227 351
L 232 351
L 238 351
L 244 351
L 250 351
L 256 351
L 262 321
L 268 233
L 274 233
L 280 233
L 286 233
L 292 233
L 298 262
L 303 233
L 309 233
L 315 262
L 321 233
L 327 233
L 333 233
L 339 262
L 345 233
L 351 233
L 357 233
L 363 262
L 369 233
L 374 233
L 380 233
L 386 262
L 392 233
L 398 233
L 404 233
L 410 262
L 416 233
L 422 233
L 428 233
L 434 262
L 440 233
L 446 233
L 451 233
L 457 262
L 463 233
L 469 233
L 475 233
L 481 262
L 487 233
L 493 233
L 499 233
L 505 262
L 511 233
L 517 233
L 522 233
L 528 262
L 534 233
L 540 233
L 546 233
L 552 262
L 558 233
L 564 233
L 570 233
L 576 262
L 582 233
L 588 233
L 593 233
L 599 262
L 605 233
L 611 233
L 617 233
L 623 262
L 629 233
L 635 233
L 641 233
L 647 262
L 653 233
L 659 233
L 664 233
L 670 262
L 676 233
L 682 233
L 688 233
L 694 262
L 700 233
L 706 233
L 712 233
L 718 262
L 724 233
L 730 233
L 736 233
L 741 262
L 747 233
L 753 233
L 759 233
L 765 262
L 771 233
L 777 233
L 783 233
L 789 262
L 795 233
L 801 233
L 807 233
L 812 262
L 818 233
L 824 233
L 830 233
L 836 262
L 842 233
L 848 233
L 854 233
L 860 262
L 866 233
L 872 233
L 878 233
L 883 144
L 889 56
L 895 56
L 901 56
L 907 56
L 913 56
L 919 56
L 925 56
L 931 56
L 937 56
L 943 56
L 949 321
L 954 351" style="stroke-width:4;stroke:rgba(84,112,198,1.0);fill:none"/><path  d="M 155 351
L 161 351
L 167 351
L 173 351
L 179 351
L 185 351
L 191 351
L 197 351
L 203 351
L 209 351
L 215 351
L 221 351
L 227 351
L 232 351
L 238 351
L 244 351
L 250 351
L 256 351
L 262 321
L 268 233
L 274 233
L 280 233
L 286 262
L 292 233
L 298 233
L 303 233
L 309 262
L 315 233
L 321 233
L 327 262
L 333 233
L 339 233
L 345 233
L 351 262
L 357 233
L 363 233
L 369 233
L 374 262
L 380 233
L 386 233
L 392 233
L 398 262
L 404 233
L 410 233
L 416 233
L 422 262
L 428 233
L 434 233
L 440 233
L 446 262
L 451 233
L 457 233
L 463 233
L 469 262
L 475 233
L 481 233
L 487 233
L 493 262
L 499 233
L 505 233
L 511 233
L 517 262
L 522 233
L 528 233
L 534 233
L 540 262
L 546 233
L 552 233
L 558 233
L 564 262
L 570 233
L 576 233
L 582 233
L 588 262
L 593 233
L 599 233
L 605 233
L 611 262
L 617 233
L 623 233
L 629 233
L 635 262
L 641 233
L 647 233
L 653 233
L 659 262
L 664 233
L 670 233
L 676 233
L 682 262
L 688 233
L 694 233
L 700 233
L 706 262
L 712 233
L 718 233
L 724 233
L 730 262
L 736 233
L 741 233
L 747 233
L 753 262
L 759 233
L 765 233
L 771 233
L 777 262
L 783 233
L 789 233
L 795 233
L 801 262
L 807 233
L 812 233
L 818 233
L 824 262
L 830 233
L 836 233
L 842 233
L 848 262
L 854 233
L 860 233
L 866 233
L 872 262
L 878 233
L 883 144
L 889 56
L 895 56
L 901 56
L 907 56
L 913 56
L 919 56
L 925 56
L 931 56
L 937 56
L 943 56
L 949 292
L 954 351" style="stroke-width:4;stroke:rgba(145,204,117,1.0);fill:none"/><path  d="M 155 351
L 161 174
L 167 174
L 173 174
L 179 174
L 185 174
L 191 174
L 197 174
L 203 174
L 209 174
L 215 174
L 221 174
L 227 174
L 232 174
L 238 174
L 244 174
L 250 174
L 256 174
L 262 174
L 268 203
L 274 233
L 280 233
L 286 262
L 292 233
L 298 233
L 303 262
L 309 233
L 315 233
L 321 233
L 327 233
L 333 262
L 339 233
L 345 233
L 351 233
L 357 262
L 363 233
L 369 233
L 374 233
L 380 262
L 386 233
L 392 233
L 398 233
L 404 262
L 410 233
L 416 233
L 422 233
L 428 262
L 434 233
L 440 233
L 446 233
L 451 262
L 457 233
L 463 233
L 469 233
L 475 262
L 481 233
L 487 233
L 493 233
L 499 262
L 505 233
L 511 233
L 517 233
L 522 262
L 528 233
L 534 233
L 540 233
L 546 262
L 552 233
L 558 233
L 564 233
L 570 262
L 576 233
L 582 233
L 588 233
L 593 262
L 599 233
L 605 233
L 611 233
L 617 262
L 623 233
L 629 233
L 635 233
L 641 262
L 647 233
L 653 233
L 659 233
L 664 262
L 670 233
L 676 233
L 682 233
L 688 262
L 694 233
L 700 233
L 706 233
L 712 262
L 718 233
L 724 233
L 730 233
L 736 262
L 741 233
L 747 233
L 753 233
L 759 262
L 765 233
L 771 233
L 777 233
L 783 262
L 789 233
L 795 233
L 801 233
L 807 262
L 812 233
L 818 233
L 824 233
L 830 262
L 836 233
L 842 233
L 848 233
L 854 262
L 860 233
L 866 233
L 872 233
L 878 262
L 883 321
L 889 351
L 895 351
L 901 351
L 907 351
L 913 351
L 919 351
L 925 351
L 931 351
L 937 351
L 943 351
L 949 351
L 954 351" style="stroke-width:4;stroke:rgba(250,200,88,1.0);fill:none"/><text x="411" y="33" style="stroke-width:0;stroke:none;fill:rgba(51,51,51,1.0);font-size:23.0px;font-family:'Roboto Medium',sans-serif">Data retrieval graph</text><path  d="M 5 5
L 132 5
L 132 85
L 5 85
L 5 5" style="stroke-width:1;stroke:rgba(51,51,51,1.0);fill:rgba(1,1,1,0.0)"/><text x="10" y="20" style="stroke-width:0;stroke:none;fill:rgba(51,51,51,1.0);font-size:10.2px;font-family:'Roboto Medium',sans-serif">Data with priority 3</text><path  d="M 102 15
L 122 15" style="stroke-width:4;stroke:rgba(84,112,198,1.0);fill:none"/><text x="10" y="50" style="stroke-width:0;stroke:none;fill:rgba(51,51,51,1.0);font-size:10.2px;font-family:'Roboto Medium',sans-serif">Data with priority 2</text><path  d="M 102 45
L 122 45" style="stroke-width:4;stroke:rgba(145,204,117,1.0);fill:none"/><text x="10" y="80" style="stroke-width:0;stroke:none;fill:rgba(51,51,51,1.0);font-size:10.2px;font-family:'Roboto Medium',sans-serif">Data with priority 1</text><path  d="M 102 75
L 122 75" style="stroke-width:4;stroke:rgba(250,200,88,1.0);fill:none"/></svg>