<?xml version="1.0" encoding="UTF-8" standalone="no"?>
<!DOCTYPE svg PUBLIC "-//W3C//DTD SVG 1.0//EN" "http://www.w3.org/TR/2001/PR-SVG-20010719/DTD/svg10.dtd">
<svg width="49cm" height="21cm" viewBox="12 6 970 418" xmlns="http://www.w3.org/2000/svg" xmlns:xlink="http://www.w3.org/1999/xlink">
  <rect style="fill: none; fill-opacity:0; stroke-width: 2; stroke: #fac858" x="380" y="120" width="20" height="40"/>
  <rect style="fill: none; fill-opacity:0; stroke-width: 2; stroke: #ff0000" x="460" y="180" width="20" height="40"/>
  <rect style="fill: none; fill-opacity:0; stroke-width: 2; stroke: #fac858" x="420" y="120" width="20" height="40"/>
  <rect style="fill: none; fill-opacity:0; stroke-width: 2; stroke: #fac858" x="400" y="120" width="20" height="40"/>
  <rect style="fill: none; fill-opacity:0; stroke-width: 2; stroke: #ff0000" x="620" y="180" width="60" height="40"/>
  <rect style="fill: none; fill-opacity:0; stroke-width: 2; stroke: #ff0000" x="540" y="180" width="40" height="40"/>
  <rect style="fill: none; fill-opacity:0; stroke-width: 2; stroke: #fac858" x="440" y="120" width="20" height="40"/>
  <rect style="fill: none; fill-opacity:0; stroke-width: 2; stroke: #fac858" x="460" y="120" width="20" height="40"/>
  <rect style="fill: none; fill-opacity:0; stroke-width: 2; stroke: #fac858" x="480" y="120" width="20" height="40"/>
  <rect style="fill: none; fill-opacity:0; stroke-width: 2; stroke: #fac858" x="520" y="120" width="20" height="40"/>
  <rect style="fill: none; fill-opacity:0; stroke-width: 2; stroke: #fac858" x="500" y="120" width="20" height="40"/>
  <rect style="fill: none; fill-opacity:0; stroke-width: 2; stroke: #fac858" x="540" y="120" width="20" height="40"/>
  <rect style="fill: none; fill-opacity:0; stroke-width: 2; stroke: #fac858" x="560" y="120" width="20" height="40"/>
  <rect style="fill: none; fill-opacity:0; stroke-width: 2; stroke: #fac858" x="580" y="120" width="20" height="40"/>
  <rect style="fill: none; fill-opacity:0; stroke-width: 2; stroke: #fac858" x="620" y="120" width="20" height="40"/>
  <rect style="fill: none; fill-opacity:0; stroke-width: 2; stroke: #fac858" x="600" y="120" width="20" height="40"/>
  <rect style="fill: none; fill-opacity:0; stroke-width: 2; stroke: #fac858" x="640" y="120" width="20" height="40"/>
  <rect style="fill: none; fill-opacity:0; stroke-width: 2; stroke: #fac858" x="660" y="120" width="20" height="40"/>
  <rect style="fill: none; fill-opacity:0; stroke-width: 2; stroke: #fac858" x="680" y="120" width="20" height="40"/>
  <rect style="fill: none; fill-opacity:0; stroke-width: 2; stroke: #fac858" x="720" y="120" width="20" height="40"/>
  <rect style="fill: none; fill-opacity:0; stroke-width: 2; stroke: #fac858" x="700" y="120" width="20" height="40"/>
  <rect style="fill: none; fill-opacity:0; stroke-width: 2; stroke: #fac858" x="740" y="120" width="20" height="40"/>
  <rect style="fill: none; fill-opacity:0; stroke-width: 2; stroke: #fac858" x="760" y="120" width="20" height="40"/>
  <g>
    <line style="fill: none; fill-opacity:0; stroke-width: 2; stroke: #000000" x1="460" y1="60" x2="460" y2="90.2639"/>
    <polygon style="fill: #000000" points="460,97.7639 455,87.7639 460,90.2639 465,87.7639 "/>
    <polygon style="fill: none; fill-opacity:0; stroke-width: 2; stroke: #000000" points="460,97.7639 455,87.7639 460,90.2639 465,87.7639 "/>
  </g>
  <g>
    <line style="fill: none; fill-opacity:0; stroke-width: 2; stroke: #000000" x1="540" y1="60" x2="540" y2="90.2639"/>
    <polygon style="fill: #000000" points="540,97.7639 535,87.7639 540,90.2639 545,87.7639 "/>
    <polygon style="fill: none; fill-opacity:0; stroke-width: 2; stroke: #000000" points="540,97.7639 535,87.7639 540,90.2639 545,87.7639 "/>
  </g>
  <g>
    <line style="fill: none; fill-opacity:0; stroke-width: 2; stroke: #000000" x1="620" y1="60" x2="620" y2="90.2639"/>
    <polygon style="fill: #000000" points="620,97.7639 615,87.7639 620,90.2639 625,87.7639 "/>
    <polygon style="fill: none; fill-opacity:0; stroke-width: 2; stroke: #000000" points="620,97.7639 615,87.7639 620,90.2639 625,87.7639 "/>
  </g>
  <g>
    <line style="fill: none; fill-opacity:0; stroke-width: 2; stroke: #000000" x1="700" y1="60" x2="700" y2="90.2639"/>
    <polygon style="fill: #000000" points="700,97.7639 695,87.7639 700,90.2639 705,87.7639 "/>
    <polygon style="fill: none; fill-opacity:0; stroke-width: 2; stroke: #000000" points="700,97.7639 695,87.7639 700,90.2639 705,87.7639 "/>
  </g>
  <g>
    <line style="fill: none; fill-opacity:0; stroke-width: 2; stroke: #000000" x1="780" y1="60" x2="780" y2="90.2639"/>
    <polygon style="fill: #000000" points="780,97.7639 775,87.7639 780,90.2639 785,87.7639 "/>
    <polygon style="fill: none; fill-opacity:0; stroke-width: 2; stroke: #000000" points="780,97.7639 775,87.7639 780,90.2639 785,87.7639 "/>
  </g>
  <rect style="fill: none; fill-opacity:0; stroke-width: 2; stroke: #fac858" x="780" y="120" width="20" height="40"/>
  <rect style="fill: none; fill-opacity:0; stroke-width: 2; stroke: #fac858" x="820" y="120" width="20" height="40"/>
  <rect style="fill: none; fill-opacity:0; stroke-width: 2; stroke: #fac858" x="800" y="120" width="20" height="40"/>
  <rect style="fill: none; fill-opacity:0; stroke-width: 2; stroke: #fac858" x="840" y="120" width="20" height="40"/>
  <rect style="fill: none; fill-opacity:0; stroke-width: 2; stroke: #fac858" x="860" y="120" width="20" height="40"/>
  <rect style="fill: none; fill-opacity:0; stroke-width: 2; stroke: #fac858" x="880" y="120" width="20" height="40"/>
  <rect style="fill: none; fill-opacity:0; stroke-width: 2; stroke: #fac858" x="920" y="120" width="20" height="40"/>
  <rect style="fill: none; fill-opacity:0; stroke-width: 2; stroke: #fac858" x="900" y="120" width="20" height="40"/>
  <g>
    <line style="fill: none; fill-opacity:0; stroke-width: 2; stroke: #000000" x1="860" y1="60" x2="860" y2="90.2639"/>
    <polygon style="fill: #000000" points="860,97.7639 855,87.7639 860,90.2639 865,87.7639 "/>
    <polygon style="fill: none; fill-opacity:0; stroke-width: 2; stroke: #000000" points="860,97.7639 855,87.7639 860,90.2639 865,87.7639 "/>
  </g>
  <g>
    <line style="fill: none; fill-opacity:0; stroke-width: 2; stroke: #000000" x1="940" y1="60" x2="940" y2="90.2639"/>
    <polygon style="fill: #000000" points="940,97.7639 935,87.7639 940,90.2639 945,87.7639 "/>
    <polygon style="fill: none; fill-opacity:0; stroke-width: 2; stroke: #000000" points="940,97.7639 935,87.7639 940,90.2639 945,87.7639 "/>
  </g>
  <g>
    <line style="fill: none; fill-opacity:0; stroke-width: 2; stroke: #000000" x1="380" y1="60" x2="380" y2="90.2639"/>
    <polygon style="fill: #000000" points="380,97.7639 375,87.7639 380,90.2639 385,87.7639 "/>
    <polygon style="fill: none; fill-opacity:0; stroke-width: 2; stroke: #000000" points="380,97.7639 375,87.7639 380,90.2639 385,87.7639 "/>
  </g>
  <g>
    <line style="fill: none; fill-opacity:0; stroke-width: 2; stroke: #91cc75" x1="460" y1="240" x2="530.264" y2="240"/>
    <polygon style="fill: #91cc75" points="537.764,240 527.764,245 530.264,240 527.764,235 "/>
    <polygon style="fill: none; fill-opacity:0; stroke-width: 2; stroke: #91cc75" points="537.764,240 527.764,245 530.264,240 527.764,235 "/>
  </g>
  <g>
    <line style="fill: none; fill-opacity:0; stroke-width: 2; stroke: #0000ff" x1="480" y1="260" x2="570.264" y2="260"/>
    <polygon style="fill: #0000ff" points="577.764,260 567.764,265 570.264,260 567.764,255 "/>
    <polygon style="fill: none; fill-opacity:0; stroke-width: 2; stroke: #0000ff" points="577.764,260 567.764,265 570.264,260 567.764,255 "/>
  </g>
  <g>
    <line style="fill: none; fill-opacity:0; stroke-width: 2; stroke: #91cc75" x1="540" y1="240" x2="610.264" y2="240"/>
    <polygon style="fill: #91cc75" points="617.764,240 607.764,245 610.264,240 607.764,235 "/>
    <polygon style="fill: none; fill-opacity:0; stroke-width: 2; stroke: #91cc75" points="617.764,240 607.764,245 610.264,240 607.764,235 "/>
  </g>
  <g>
    <line style="fill: none; fill-opacity:0; stroke-width: 2; stroke: #0000ff" x1="580" y1="260" x2="670.264" y2="260"/>
    <polygon style="fill: #0000ff" points="677.764,260 667.764,265 670.264,260 667.764,255 "/>
    <polygon style="fill: none; fill-opacity:0; stroke-width: 2; stroke: #0000ff" points="677.764,260 667.764,265 670.264,260 667.764,255 "/>
  </g>
  <g>
    <line style="fill: none; fill-opacity:0; stroke-width: 2; stroke: #91cc75" x1="620" y1="240" x2="690.264" y2="240"/>
    <polygon style="fill: #91cc75" points="697.764,240 687.764,245 690.264,240 687.764,235 "/>
    <polygon style="fill: none; fill-opacity:0; stroke-width: 2; stroke: #91cc75" points="697.764,240 687.764,245 690.264,240 687.764,235 "/>
  </g>
  <g>
    <line style="fill: none; fill-opacity:0; stroke-width: 2; stroke: #0000ff" x1="680" y1="260" x2="770.264" y2="260"/>
    <polygon style="fill: #0000ff" points="777.764,260 767.764,265 770.264,260 767.764,255 "/>
    <polygon style="fill: none; fill-opacity:0; stroke-width: 2; stroke: #0000ff" points="777.764,260 767.764,265 770.264,260 767.764,255 "/>
  </g>
  <rect style="fill: none; fill-opacity:0; stroke-width: 2; stroke: #ff0000" x="700" y="180" width="80" height="40"/>
  <g>
    <line style="fill: none; fill-opacity:0; stroke-width: 2; stroke: #91cc75" x1="700" y1="240" x2="770.264" y2="240"/>
    <polygon style="fill: #91cc75" points="777.764,240 767.764,245 770.264,240 767.764,235 "/>
    <polygon style="fill: none; fill-opacity:0; stroke-width: 2; stroke: #91cc75" points="777.764,240 767.764,245 770.264,240 767.764,235 "/>
  </g>
  <g>
    <line style="fill: none; fill-opacity:0; stroke-width: 2; stroke: #0000ff" x1="780" y1="260" x2="870.264" y2="260"/>
    <polygon style="fill: #0000ff" points="877.764,260 867.764,265 870.264,260 867.764,255 "/>
    <polygon style="fill: none; fill-opacity:0; stroke-width: 2; stroke: #0000ff" points="877.764,260 867.764,265 870.264,260 867.764,255 "/>
  </g>
  <rect style="fill: none; fill-opacity:0; stroke-width: 2; stroke: #ff0000" x="780" y="180" width="100" height="40"/>
  <g>
    <line style="fill: none; fill-opacity:0; stroke-width: 2; stroke: #000000" x1="380" y1="360" x2="970.264" y2="360"/>
    <polygon style="fill: #000000" points="977.764,360 967.764,365 970.264,360 967.764,355 "/>
    <polygon style="fill: none; fill-opacity:0; stroke-width: 2; stroke: #000000" points="977.764,360 967.764,365 970.264,360 967.764,355 "/>
  </g>
  <text font-size="12.8" style="fill: #000000;text-anchor:start;font-family:sans-serif;font-style:normal;font-weight:normal" x="880" y="380">
    <tspan x="880" y="380">Time</tspan>
  </text>
  <g>
    <rect style="fill: #ffffff" x="20" y="40" width="20" height="40"/>
    <rect style="fill: none; fill-opacity:0; stroke-width: 2; stroke: #fac858" x="20" y="40" width="20" height="40"/>
  </g>
  <text font-size="12.8" style="fill: #000000;text-anchor:start;font-family:sans-serif;font-style:normal;font-weight:normal" x="60" y="60">
    <tspan x="60" y="60"></tspan>
  </text>
  <text font-size="12.8" style="fill: #000000;text-anchor:start;font-family:sans-serif;font-style:normal;font-weight:normal" x="60" y="60">
    <tspan x="60" y="60">- one ticker tick duration</tspan>
  </text>
  <g>
    <line style="fill: none; fill-opacity:0; stroke-width: 2; stroke: #000000" x1="389.736" y1="40" x2="450.264" y2="40"/>
    <polygon style="fill: #000000" points="382.236,40 392.236,35 389.736,40 392.236,45 "/>
    <polygon style="fill: none; fill-opacity:0; stroke-width: 2; stroke: #000000" points="382.236,40 392.236,35 389.736,40 392.236,45 "/>
    <polygon style="fill: #000000" points="457.764,40 447.764,45 450.264,40 447.764,35 "/>
    <polygon style="fill: none; fill-opacity:0; stroke-width: 2; stroke: #000000" points="457.764,40 447.764,45 450.264,40 447.764,35 "/>
  </g>
  <text font-size="12.8" style="fill: #000000;text-anchor:start;font-family:sans-serif;font-style:normal;font-weight:normal" x="400" y="20">
    <tspan x="400" y="20">4 ticks</tspan>
  </text>
  <g>
    <rect style="fill: #ffffff" x="20" y="100" width="20" height="40"/>
    <rect style="fill: none; fill-opacity:0; stroke-width: 2; stroke: #ff0000" x="20" y="100" width="20" height="40"/>
  </g>
  <text font-size="12.8" style="fill: #000000;text-anchor:start;font-family:sans-serif;font-style:normal;font-weight:normal" x="60" y="120">
    <tspan x="60" y="120">- time range in which the discipline can </tspan>
    <tspan x="60" y="136">decide that a timeout has occurred</tspan>
  </text>
  <g>
    <line style="fill: none; fill-opacity:0; stroke-width: 2; stroke: #91cc75" x1="20" y1="180" x2="90.2639" y2="180"/>
    <polygon style="fill: #91cc75" points="97.7639,180 87.7639,185 90.2639,180 87.7639,175 "/>
    <polygon style="fill: none; fill-opacity:0; stroke-width: 2; stroke: #91cc75" points="97.7639,180 87.7639,185 90.2639,180 87.7639,175 "/>
  </g>
  <text font-size="12.8" style="fill: #000000;text-anchor:start;font-family:sans-serif;font-style:normal;font-weight:normal" x="140" y="180">
    <tspan x="140" y="180">- min actual timeout duration</tspan>
  </text>
  <g>
    <line style="fill: none; fill-opacity:0; stroke-width: 2; stroke: #0000ff" x1="20" y1="220" x2="110.264" y2="220"/>
    <polygon style="fill: #0000ff" points="117.764,220 107.764,225 110.264,220 107.764,215 "/>
    <polygon style="fill: none; fill-opacity:0; stroke-width: 2; stroke: #0000ff" points="117.764,220 107.764,225 110.264,220 107.764,215 "/>
  </g>
  <text font-size="12.8" style="fill: #000000;text-anchor:start;font-family:sans-serif;font-style:normal;font-weight:normal" x="140" y="220">
    <tspan x="140" y="220">- max actual timeout duration</tspan>
  </text>
  <g>
    <line style="fill: none; fill-opacity:0; stroke-width: 2; stroke: #000000" x1="20" y1="240" x2="20" y2="270.264"/>
    <polygon style="fill: #000000" points="20,277.764 15,267.764 20,270.264 25,267.764 "/>
    <polygon style="fill: none; fill-opacity:0; stroke-width: 2; stroke: #000000" points="20,277.764 15,267.764 20,270.264 25,267.764 "/>
  </g>
  <text font-size="12.8" style="fill: #000000;text-anchor:start;font-family:sans-serif;font-style:normal;font-weight:normal" x="40" y="260">
    <tspan x="40" y="260">- the perfect moment for a timeout to occur</tspan>
  </text>
  <g>
    <line style="fill: none; fill-opacity:0; stroke-width: 2; stroke: #91cc75" x1="780" y1="240" x2="850.264" y2="240"/>
    <polygon style="fill: #91cc75" points="857.764,240 847.764,245 850.264,240 847.764,235 "/>
    <polygon style="fill: none; fill-opacity:0; stroke-width: 2; stroke: #91cc75" points="857.764,240 847.764,245 850.264,240 847.764,235 "/>
  </g>
  <g>
    <line style="fill: none; fill-opacity:0; stroke-width: 2; stroke: #0000ff" x1="880" y1="260" x2="970.264" y2="260"/>
    <polygon style="fill: #0000ff" points="977.764,260 967.764,265 970.264,260 967.764,255 "/>
    <polygon style="fill: none; fill-opacity:0; stroke-width: 2; stroke: #0000ff" points="977.764,260 967.764,265 970.264,260 967.764,255 "/>
  </g>
  <rect style="fill: none; fill-opacity:0; stroke-width: 2; stroke-dasharray: 4; stroke: #ff0000" x="860" y="180" width="120" height="40"/>
  <g>
    <line style="fill: none; fill-opacity:0; stroke-width: 2; stroke-dasharray: 4; stroke: #000000" x1="380" y1="300" x2="490.264" y2="300"/>
    <polygon style="fill: #000000" points="497.764,300 487.764,305 490.264,300 487.764,295 "/>
    <polygon style="fill: none; fill-opacity:0; stroke-width: 2; stroke: #000000" points="497.764,300 487.764,305 490.264,300 487.764,295 "/>
  </g>
  <g>
    <line style="fill: none; fill-opacity:0; stroke-width: 2; stroke-dasharray: 4; stroke: #000000" x1="380" y1="320" x2="510.264" y2="320"/>
    <polygon style="fill: #000000" points="517.764,320 507.764,325 510.264,320 507.764,315 "/>
    <polygon style="fill: none; fill-opacity:0; stroke-width: 2; stroke: #000000" points="517.764,320 507.764,325 510.264,320 507.764,315 "/>
  </g>
  <g>
    <line style="fill: none; fill-opacity:0; stroke-width: 2; stroke-dasharray: 4; stroke: #000000" x1="380" y1="340" x2="590.264" y2="340"/>
    <polygon style="fill: #000000" points="597.764,340 587.764,345 590.264,340 587.764,335 "/>
    <polygon style="fill: none; fill-opacity:0; stroke-width: 2; stroke: #000000" points="597.764,340 587.764,345 590.264,340 587.764,335 "/>
  </g>
  <g>
    <line style="fill: none; fill-opacity:0; stroke-width: 2; stroke-dasharray: 4; stroke: #000000" x1="20" y1="320" x2="50.2639" y2="320"/>
    <polygon style="fill: #000000" points="57.7639,320 47.7639,325 50.2639,320 47.7639,315 "/>
    <polygon style="fill: none; fill-opacity:0; stroke-width: 2; stroke: #000000" points="57.7639,320 47.7639,325 50.2639,320 47.7639,315 "/>
  </g>
  <text font-size="12.8" style="fill: #000000;text-anchor:start;font-family:sans-serif;font-style:normal;font-weight:normal" x="80" y="320">
    <tspan x="80" y="320">- "pauseAt" duration you need to </tspan>
    <tspan x="80" y="336">choose to pass the test reliably</tspan>
  </text>
  <text font-size="12.8" style="fill: #000000;text-anchor:start;font-family:sans-serif;font-style:normal;font-weight:normal" x="380" y="420">
    <tspan x="380" y="420">time when the pause occurred</tspan>
  </text>
  <g>
    <line style="fill: none; fill-opacity:0; stroke-width: 2; stroke: #5470c6" x1="380" y1="400" x2="380" y2="369.736"/>
    <polygon style="fill: #5470c6" points="380,362.236 385,372.236 380,369.736 375,372.236 "/>
    <polygon style="fill: none; fill-opacity:0; stroke-width: 2; stroke: #5470c6" points="380,362.236 385,372.236 380,369.736 375,372.236 "/>
  </g>
  <text font-size="12.8" style="fill: #000000;text-anchor:start;font-family:sans-serif;font-style:normal;font-weight:normal" x="620" y="300">
    <tspan x="620" y="300">- 1.5 timeout</tspan>
  </text>
  <text font-size="12.8" style="fill: #000000;text-anchor:start;font-family:sans-serif;font-style:normal;font-weight:normal" x="620" y="320">
    <tspan x="620" y="320">- 1.75 timeout</tspan>
  </text>
  <text font-size="12.8" style="fill: #000000;text-anchor:start;font-family:sans-serif;font-style:normal;font-weight:normal" x="620" y="340">
    <tspan x="620" y="340">- 2.75 timeout</tspan>
  </text>
  <text font-size="12.8" style="fill: #000000;text-anchor:start;font-family:sans-serif;font-style:normal;font-weight:normal" x="20" y="20">
    <tspan x="20" y="20">Timeout inaccuracy equal to 25 is used</tspan>
  </text>
  <rect style="fill: none; fill-opacity:0; stroke-width: 2; stroke: #fac858" x="940" y="120" width="20" height="40"/>
  <rect style="fill: none; fill-opacity:0; stroke-width: 2; stroke: #fac858" x="960" y="120" width="20" height="40"/>
</svg>
